<?xml version="1.0" encoding="UTF-8" standalone="no"?>
<!-- Generator: Adobe Illustrator 19.0.0, SVG Export Plug-In . SVG Version: 6.00 Build 0)  -->

<svg
   xmlns:dc="http://purl.org/dc/elements/1.1/"
   xmlns:cc="http://creativecommons.org/ns#"
   xmlns:rdf="http://www.w3.org/1999/02/22-rdf-syntax-ns#"
   xmlns:svg="http://www.w3.org/2000/svg"
   xmlns="http://www.w3.org/2000/svg"
   xmlns:sodipodi="http://sodipodi.sourceforge.net/DTD/sodipodi-0.dtd"
   xmlns:inkscape="http://www.inkscape.org/namespaces/inkscape"
   version="1.1"
   id="Layer_1"
   x="0px"
   y="0px"
   viewBox="0 0 330 330"
   style="enable-background:new 0 0 330 330;"
   xml:space="preserve"
   sodipodi:docname="code-white.svg"
   inkscape:version="0.92.4 (5da689c313, 2019-01-14)"><metadata
   id="metadata10"><rdf:RDF><cc:Work
       rdf:about=""><dc:format>image/svg+xml</dc:format><dc:type
         rdf:resource="http://purl.org/dc/dcmitype/StillImage" /><dc:title /></cc:Work></rdf:RDF></metadata><defs
   id="defs8" /><sodipodi:namedview
   pagecolor="#ffffff"
   bordercolor="#666666"
   borderopacity="1"
   objecttolerance="10"
   gridtolerance="10"
   guidetolerance="10"
   inkscape:pageopacity="0"
   inkscape:pageshadow="2"
   inkscape:window-width="640"
   inkscape:window-height="480"
   id="namedview6"
   showgrid="false"
   inkscape:zoom="0.50568849"
   inkscape:cx="287.24087"
   inkscape:cy="168.97368"
   inkscape:window-x="679"
   inkscape:window-y="139"
   inkscape:window-maximized="0"
   inkscape:current-layer="Layer_1" />

<g
   id="g104"
   transform="matrix(0.59366397,0,0,0.58706455,13.440268,43.827346)"><g
     id="g41">
	<path
   id="path25"
   d="M 455.5,40 H 55.5 C 24.897,40 0,64.897 0,95.5 v 320 C 0,446.103 24.897,471 55.5,471 h 400 c 30.603,0 55.5,-24.897 55.5,-55.5 V 95.5 C 511,64.897 486.103,40 455.5,40 Z M 496,415.5 c 0,22.332 -18.168,40.5 -40.5,40.5 H 55.5 C 33.168,456 15,437.832 15,415.5 V 95.5 C 15,73.168 33.168,55 55.5,55 h 400 c 22.332,0 40.5,18.168 40.5,40.5 z"
   inkscape:connector-curvature="0" />
	<path
   id="path27"
   d="m 471.5,120 h -432 c -4.142,0 -7.5,3.357 -7.5,7.5 0,4.143 3.358,7.5 7.5,7.5 h 432 c 4.142,0 7.5,-3.357 7.5,-7.5 0,-4.143 -3.358,-7.5 -7.5,-7.5 z"
   inkscape:connector-curvature="0" />
	<path
   id="path29"
   d="m 55.5,95 c 1.98,0 3.91,-0.8 5.3,-2.2 1.4,-1.39 2.2,-3.32 2.2,-5.3 0,-1.971 -0.8,-3.91 -2.2,-5.3 -1.39,-1.4 -3.32,-2.2 -5.3,-2.2 -1.98,0 -3.91,0.8 -5.3,2.2 -1.4,1.39 -2.2,3.329 -2.2,5.3 0,1.979 0.8,3.91 2.2,5.3 1.39,1.4 3.32,2.2 5.3,2.2 z"
   inkscape:connector-curvature="0" />
	<path
   id="path31"
   d="m 119.5,95 c 1.97,0 3.91,-0.8 5.3,-2.2 1.4,-1.39 2.2,-3.32 2.2,-5.3 0,-1.971 -0.8,-3.91 -2.2,-5.3 -1.39,-1.4 -3.33,-2.2 -5.3,-2.2 -1.98,0 -3.91,0.8 -5.3,2.2 -1.4,1.39 -2.2,3.329 -2.2,5.3 0,1.979 0.8,3.91 2.2,5.3 1.39,1.4 3.32,2.2 5.3,2.2 z"
   inkscape:connector-curvature="0" />
	<path
   id="path33"
   d="m 87.5,95 c 1.98,0 3.91,-0.8 5.3,-2.2 1.4,-1.39 2.2,-3.32 2.2,-5.3 0,-1.971 -0.8,-3.91 -2.2,-5.3 -1.39,-1.4 -3.32,-2.2 -5.3,-2.2 -1.97,0 -3.91,0.8 -5.3,2.2 -1.4,1.39 -2.2,3.329 -2.2,5.3 0,1.979 0.8,3.91 2.2,5.3 1.39,1.4 3.33,2.2 5.3,2.2 z"
   inkscape:connector-curvature="0" />
	<path
   id="path35"
   d="m 188.803,210.196 c -2.929,-2.928 -7.678,-2.928 -10.606,0 l -80,80 c -2.929,2.93 -2.929,7.678 0,10.607 l 80,80 c 1.464,1.464 3.384,2.196 5.303,2.196 1.919,0 3.839,-0.732 5.303,-2.196 2.929,-2.93 2.929,-7.678 0,-10.607 L 114.106,295.5 188.803,220.804 c 2.929,-2.93 2.929,-7.678 0,-10.608 z"
   inkscape:connector-curvature="0" />
	<path
   id="path37"
   d="m 332.803,210.196 c -2.929,-2.928 -7.678,-2.928 -10.606,0 -2.929,2.93 -2.929,7.678 0,10.607 l 74.697,74.696 -74.697,74.696 c -2.929,2.93 -2.929,7.678 0,10.607 1.464,1.464 3.384,2.196 5.303,2.196 1.919,0 3.839,-0.732 5.303,-2.196 l 80,-80 c 2.929,-2.93 2.929,-7.678 0,-10.607 z"
   inkscape:connector-curvature="0" />
	<path
   id="path39"
   d="m 290.063,200.451 c -3.892,-1.412 -8.195,0.594 -9.611,4.485 l -64,176 c -1.416,3.894 0.592,8.196 4.485,9.612 0.846,0.308 1.711,0.453 2.563,0.453 3.064,0 5.941,-1.893 7.049,-4.938 l 64,-176 c 1.415,-3.893 -0.593,-8.196 -4.486,-9.612 z"
   inkscape:connector-curvature="0" />
</g><g
     id="g43">
</g><g
     id="g45">
</g><g
     id="g47">
</g><g
     id="g49">
</g><g
     id="g51">
</g><g
     id="g53">
</g><g
     id="g55">
</g><g
     id="g57">
</g><g
     id="g59">
</g><g
     id="g61">
</g><g
     id="g63">
</g><g
     id="g65">
</g><g
     id="g67">
</g><g
     id="g69">
</g><g
     id="g71">
</g></g></svg>