<?xml version="1.0" encoding="UTF-8" standalone="no"?>
<!-- Generator: Adobe Illustrator 19.0.0, SVG Export Plug-In . SVG Version: 6.00 Build 0)  -->

<svg
   xmlns:dc="http://purl.org/dc/elements/1.1/"
   xmlns:cc="http://creativecommons.org/ns#"
   xmlns:rdf="http://www.w3.org/1999/02/22-rdf-syntax-ns#"
   xmlns:svg="http://www.w3.org/2000/svg"
   xmlns="http://www.w3.org/2000/svg"
   xmlns:sodipodi="http://sodipodi.sourceforge.net/DTD/sodipodi-0.dtd"
   xmlns:inkscape="http://www.inkscape.org/namespaces/inkscape"
   version="1.1"
   id="Layer_1"
   x="0px"
   y="0px"
   viewBox="0 0 330 330"
   style="enable-background:new 0 0 330 330;"
   xml:space="preserve"
   sodipodi:docname="Colours-white.svg"
   inkscape:version="0.92.4 (5da689c313, 2019-01-14)"><metadata
   id="metadata10"><rdf:RDF><cc:Work
       rdf:about=""><dc:format>image/svg+xml</dc:format><dc:type
         rdf:resource="http://purl.org/dc/dcmitype/StillImage" /><dc:title></dc:title></cc:Work></rdf:RDF></metadata><defs
   id="defs8" /><sodipodi:namedview
   pagecolor="#ffffff"
   bordercolor="#666666"
   borderopacity="1"
   objecttolerance="10"
   gridtolerance="10"
   guidetolerance="10"
   inkscape:pageopacity="0"
   inkscape:pageshadow="2"
   inkscape:window-width="1366"
   inkscape:window-height="705"
   id="namedview6"
   showgrid="false"
   inkscape:zoom="1.430303"
   inkscape:cx="82.25563"
   inkscape:cy="149.17032"
   inkscape:window-x="-8"
   inkscape:window-y="-8"
   inkscape:window-maximized="1"
   inkscape:current-layer="Layer_1"
   inkscape:snap-text-baseline="true" />

<rect
   style="opacity:0;fill:none;stroke:#000000;stroke-opacity:1"
   id="rect72"
   width="239.27776"
   height="185.88518"
   x="77.122581"
   y="112.47478" /><path
   style="stroke-width:15.88406658"
   inkscape:connector-curvature="0"
   id="path5"
   d="m 53.725302,91.628397 c -6.48137,-5.76322 -16.19576,-4.77524 -21.57392,2.17356 l -19.56668,25.341693 c -5.3628404,6.96526 -4.4588204,17.42138 2.00723,23.16814 L 135.45489,250.03458 18.539085,136.2048 Z M 112.47132,37.042486 84.584582,50.693081 C 76.938711,54.447406 73.521822,64.27781 77.000001,72.494513 L 142.12013,226.04312 88.530617,68.22453 132.78879,45.193324 c -3.52414,-8.23317 -12.65628,-11.905163 -20.31747,-8.150838 z m 110.29052,3.359134 c 0.1992,-9.056487 -6.54265,-16.631003 -14.95464,-16.845065 L 177.16242,22.799104 C 168.75044,22.585041 161.70213,29.83023 161.50295,38.87025 L 157.8409,207.53496 176.31196,38.942459 Z M 299.06732,56.044642 271.8088,41.010874 c -7.49265,-4.116585 -16.79334,-0.905649 -20.63926,7.146391 L 153.24418,253.26198 c -3.84591,8.05204 -0.85805,18.0471 6.64991,22.18015 l 27.25854,15.03378 c 7.49264,4.13304 16.77801,0.92211 20.62393,-7.12993 L 305.70191,78.241266 c 3.84592,-8.084972 0.85806,-18.063574 -6.63459,-22.196624 z m 3.36617,15.256312 c -2.37811,6.618324 -99.46718,216.614126 -106.24891,216.048836 -7.53862,-4.14952 -44.86461,-17.97486 -41.49774,-28.54817 3.86126,-8.10144 98.18444,-216.075421 105.72306,-211.925901 8.28017,-1.552269 45.63764,17.576204 42.02359,24.425235 z"
   sodipodi:nodetypes="ccccccccccccccccccccccccccccccccccc" /><circle
   style="opacity:0.98999999;fill:#ffffff;fill-opacity:0.94117647;stroke:#15150b;stroke-width:3;stroke-linejoin:round;stroke-miterlimit:4;stroke-dasharray:none;stroke-opacity:1"
   id="path891"
   cx="188.42162"
   cy="253.44279"
   r="11.536016" /></svg>