<?xml version="1.0" encoding="UTF-8" standalone="no"?>
<!-- Generator: Adobe Illustrator 19.0.0, SVG Export Plug-In . SVG Version: 6.00 Build 0)  -->

<svg
   xmlns:dc="http://purl.org/dc/elements/1.1/"
   xmlns:cc="http://creativecommons.org/ns#"
   xmlns:rdf="http://www.w3.org/1999/02/22-rdf-syntax-ns#"
   xmlns:svg="http://www.w3.org/2000/svg"
   xmlns="http://www.w3.org/2000/svg"
   xmlns:sodipodi="http://sodipodi.sourceforge.net/DTD/sodipodi-0.dtd"
   xmlns:inkscape="http://www.inkscape.org/namespaces/inkscape"
   version="1.1"
   id="Layer_1"
   x="0px"
   y="0px"
   viewBox="0 0 330 330"
   style="enable-background:new 0 0 330 330;"
   xml:space="preserve"
   sodipodi:docname="Colours-white.svg"
   inkscape:version="0.92.4 (5da689c313, 2019-01-14)"><metadata
   id="metadata10"><rdf:RDF><cc:Work
       rdf:about=""><dc:format>image/svg+xml</dc:format><dc:type
         rdf:resource="http://purl.org/dc/dcmitype/StillImage" /><dc:title /></cc:Work></rdf:RDF></metadata><defs
   id="defs8" /><sodipodi:namedview
   pagecolor="#ffffff"
   bordercolor="#666666"
   borderopacity="1"
   objecttolerance="10"
   gridtolerance="10"
   guidetolerance="10"
   inkscape:pageopacity="0"
   inkscape:pageshadow="2"
   inkscape:window-width="640"
   inkscape:window-height="480"
   id="namedview6"
   showgrid="false"
   inkscape:zoom="0.50568849"
   inkscape:cx="287.24087"
   inkscape:cy="89.8736"
   inkscape:window-x="679"
   inkscape:window-y="139"
   inkscape:window-maximized="0"
   inkscape:current-layer="Layer_1" />

 <path
   d="M 60.680469,104.17918 C 54.199101,98.41596 44.48471,99.40394 39.106553,106.35274 l -19.566684,25.34169 c -5.362834,6.96526 -4.458813,17.42138 2.007233,23.16814 L 142.41006,262.58536 84.07775,125.02556 Z M 119.42649,49.593268 91.53975,63.243863 C 83.893881,66.998188 80.476989,76.828592 83.95517,85.045295 L 149.0753,238.5939 152.33897,87.449381 139.74396,57.744106 c -3.52414,-8.23317 -12.65628,-11.905163 -20.31747,-8.150838 z M 229.717,52.952402 c 0.1992,-9.056487 -6.54265,-16.631003 -14.95464,-16.845065 l -30.64477,-0.757451 c -8.41198,-0.214063 -15.46029,7.031126 -15.65947,16.071146 L 164.79607,220.08574 228.99685,85.605151 Z m 76.30548,15.643022 -27.25852,-15.033768 c -7.49265,-4.116585 -16.79334,-0.905649 -20.63926,7.146391 L 160.19935,265.81276 c -3.84591,8.05204 -0.85805,18.0471 6.64991,22.18015 l 27.25853,15.03378 c 7.49264,4.13304 16.77801,0.92211 20.62393,-7.12993 L 312.65707,90.792048 c 3.84592,-8.084972 0.85806,-18.063574 -6.63459,-22.196624 z M 208.0818,273.70013 c -3.86124,8.10145 -13.10063,11.29591 -20.62393,7.1464 -7.53861,-4.14952 -10.49584,-14.06226 -6.63459,-22.1637 3.86125,-8.10144 13.08531,-11.27944 20.62393,-7.12992 7.53861,4.13305 10.49583,14.06225 6.63459,22.14722 z"
   id="path5"
   inkscape:connector-curvature="0"
   style="stroke-width:15.88406658" /></svg>