<?xml version="1.0" encoding="UTF-8" standalone="no"?>
<!-- Generator: Adobe Illustrator 19.0.0, SVG Export Plug-In . SVG Version: 6.00 Build 0)  -->

<svg
   xmlns:dc="http://purl.org/dc/elements/1.1/"
   xmlns:cc="http://creativecommons.org/ns#"
   xmlns:rdf="http://www.w3.org/1999/02/22-rdf-syntax-ns#"
   xmlns:svg="http://www.w3.org/2000/svg"
   xmlns="http://www.w3.org/2000/svg"
   xmlns:sodipodi="http://sodipodi.sourceforge.net/DTD/sodipodi-0.dtd"
   xmlns:inkscape="http://www.inkscape.org/namespaces/inkscape"
   version="1.1"
   id="Layer_1"
   x="0px"
   y="0px"
   viewBox="0 0 330 330"
   style="enable-background:new 0 0 330 330;"
   xml:space="preserve"
   sodipodi:docname="database-white.svg"
   inkscape:version="0.92.4 (5da689c313, 2019-01-14)"><metadata
   id="metadata10"><rdf:RDF><cc:Work
       rdf:about=""><dc:format>image/svg+xml</dc:format><dc:type
         rdf:resource="http://purl.org/dc/dcmitype/StillImage" /><dc:title></dc:title></cc:Work></rdf:RDF></metadata><defs
   id="defs8" /><sodipodi:namedview
   pagecolor="#ffffff"
   bordercolor="#666666"
   borderopacity="1"
   objecttolerance="10"
   gridtolerance="10"
   guidetolerance="10"
   inkscape:pageopacity="0"
   inkscape:pageshadow="2"
   inkscape:window-width="640"
   inkscape:window-height="480"
   id="namedview6"
   showgrid="false"
   inkscape:zoom="0.50568849"
   inkscape:cx="287.24087"
   inkscape:cy="89.8736"
   inkscape:window-x="679"
   inkscape:window-y="139"
   inkscape:window-maximized="0"
   inkscape:current-layer="Layer_1" />

<g
   id="g173"
   transform="matrix(0.49877781,0,0,0.49108404,18.520822,19.565828)"><g
     id="g114">
	<g
   id="g112">
		<path
   id="path106"
   d="m 214.404,513.57 c -21.012,-1.428 -61.2,-6.528 -94.248,-25.296 -25.5,-14.484 -57.528,-39.372 -64.056,-61.608 -0.816,-2.652 -3.672,-4.284 -6.324,-3.468 -2.652,0.816 -4.284,3.672 -3.468,6.324 7.344,25.092 40.188,51.408 68.748,67.524 34.884,19.788 76.704,25.296 98.532,26.724 0.204,0 0.204,0 0.408,0 2.652,0 4.896,-2.04 5.1,-4.692 0.204,-2.856 -2.04,-5.304 -4.692,-5.508 z"
   inkscape:connector-curvature="0" />
		<path
   id="path108"
   d="m 558.144,234.702 c 21.828,-21.624 33.456,-45.9 33.456,-71.4 0,-42.228 -31.62,-81.396 -89.352,-110.16 -55.284,-27.54 -128.52,-42.84 -206.448,-42.84 -77.928,0 -151.164,15.3 -206.448,42.84 C 31.62,81.906 0,121.074 0,163.302 c 0,25.5 11.628,49.98 33.66,71.604 C 11.832,256.53 0.204,281.214 0,306.102 c 0,21.624 8.364,42.432 24.276,61.608 -0.408,0.408 -0.816,0.612 -1.02,1.02 C 7.956,387.702 0,407.694 0,428.502 c 0,42.228 31.62,81.396 89.352,110.16 55.284,27.744 128.724,42.84 206.448,42.84 77.928,0 151.164,-15.3 206.448,-42.84 57.528,-28.764 89.352,-67.932 89.352,-110.16 0,-20.808 -7.752,-40.8 -23.052,-59.772 -0.408,-0.408 -0.816,-0.816 -1.02,-1.224 15.912,-18.972 24.276,-39.78 24.276,-61.404 -0.204,-24.888 -11.832,-49.572 -33.66,-71.4 z M 20.4,163.302 c 0,-34.068 27.744,-66.708 77.928,-91.8 52.632,-26.316 122.808,-40.8 197.472,-40.8 74.664,0 144.84,14.484 197.472,40.8 50.184,25.092 77.928,57.732 77.928,91.8 0,34.068 -27.744,66.708 -77.928,91.8 -52.632,26.316 -122.604,40.8 -197.472,40.8 -74.664,0 -144.84,-14.484 -197.472,-40.8 C 48.144,230.01 20.4,197.37 20.4,163.302 Z m 27.948,85.884 c 0.204,-0.204 0.408,-0.612 0.612,-0.816 11.628,8.976 25.092,17.34 40.392,25.092 55.284,27.744 128.724,42.84 206.448,42.84 77.928,0 151.164,-15.3 206.448,-42.84 15.504,-7.752 28.968,-16.116 40.596,-25.296 0.204,0.204 0.408,0.612 0.612,0.816 18.156,17.952 27.744,37.74 27.744,57.12 0,34.068 -27.744,66.708 -77.928,91.8 -52.632,26.316 -122.604,40.8 -197.472,40.8 -74.664,0 -144.84,-14.484 -197.472,-40.8 C 48.144,372.81 20.4,340.17 20.4,306.102 c 0,-19.38 9.792,-39.168 27.948,-56.916 z M 571.2,428.502 c 0,34.068 -27.744,66.708 -77.928,91.8 -52.632,26.316 -122.604,40.8 -197.472,40.8 -74.664,0 -144.84,-14.484 -197.472,-40.8 C 48.144,495.21 20.4,462.57 20.4,428.502 c 0,-15.708 6.12,-31.212 17.952,-46.308 13.668,12.444 30.6,23.664 50.796,33.864 55.284,27.744 128.724,42.84 206.448,42.84 77.928,0 151.164,-15.3 206.448,-42.84 20.196,-10.2 37.332,-21.624 50.796,-33.864 12.24,15.096 18.36,30.6 18.36,46.308 z"
   inkscape:connector-curvature="0" />
		<path
   id="path110"
   d="m 115.056,374.646 c 34.884,19.788 76.704,25.296 98.532,26.724 0.204,0 0.204,0 0.408,0 2.652,0 4.896,-2.04 5.1,-4.692 0.204,-2.856 -2.04,-5.304 -4.692,-5.508 -21.012,-1.428 -61.2,-6.528 -94.248,-25.296 -25.5,-14.484 -57.528,-39.372 -64.056,-61.608 -0.816,-2.652 -3.672,-4.284 -6.324,-3.468 -2.652,0.816 -4.284,3.672 -3.468,6.324 7.344,25.092 40.392,51.408 68.748,67.524 z"
   inkscape:connector-curvature="0" />
	</g>
</g><g
     id="g116">
</g><g
     id="g118">
</g><g
     id="g120">
</g><g
     id="g122">
</g><g
     id="g124">
</g><g
     id="g126">
</g><g
     id="g128">
</g><g
     id="g130">
</g><g
     id="g132">
</g><g
     id="g134">
</g><g
     id="g136">
</g><g
     id="g138">
</g><g
     id="g140">
</g><g
     id="g142">
</g><g
     id="g144">
</g></g></svg>