<?xml version="1.0" encoding="UTF-8" standalone="no"?>
<!-- Generator: Adobe Illustrator 19.0.0, SVG Export Plug-In . SVG Version: 6.00 Build 0)  -->

<svg
   xmlns:dc="http://purl.org/dc/elements/1.1/"
   xmlns:cc="http://creativecommons.org/ns#"
   xmlns:rdf="http://www.w3.org/1999/02/22-rdf-syntax-ns#"
   xmlns:svg="http://www.w3.org/2000/svg"
   xmlns="http://www.w3.org/2000/svg"
   xmlns:sodipodi="http://sodipodi.sourceforge.net/DTD/sodipodi-0.dtd"
   xmlns:inkscape="http://www.inkscape.org/namespaces/inkscape"
   version="1.1"
   id="Layer_1"
   x="0px"
   y="0px"
   viewBox="0 0 330 330"
   style="enable-background:new 0 0 330 330;"
   xml:space="preserve"
   sodipodi:docname="english.svg"
   inkscape:version="0.92.4 (5da689c313, 2019-01-14)"><metadata
   id="metadata10"><rdf:RDF><cc:Work
       rdf:about=""><dc:format>image/svg+xml</dc:format><dc:type
         rdf:resource="http://purl.org/dc/dcmitype/StillImage" /><dc:title></dc:title></cc:Work></rdf:RDF></metadata><defs
   id="defs8" /><sodipodi:namedview
   pagecolor="#ffffff"
   bordercolor="#666666"
   borderopacity="1"
   objecttolerance="10"
   gridtolerance="10"
   guidetolerance="10"
   inkscape:pageopacity="0"
   inkscape:pageshadow="2"
   inkscape:window-width="1680"
   inkscape:window-height="987"
   id="namedview6"
   showgrid="false"
   inkscape:zoom="0.50568849"
   inkscape:cx="23.68978"
   inkscape:cy="168.97368"
   inkscape:window-x="1358"
   inkscape:window-y="-8"
   inkscape:window-maximized="1"
   inkscape:current-layer="Layer_1" />

<g
   id="g200"
   transform="matrix(0.6955234,0,0,0.70345908,2.1021414,-2.9448223)"><g
     id="g18">
	<path
   id="path10"
   d="M 41.712,102.641 C 26.439,124.809 14.832,149.7 7.794,176.453 h 107.734 z"
   style="fill:#29337a"
   inkscape:connector-curvature="0" />
	<path
   id="path12"
   d="m 170.511,9.48 c -27.288,7.947 -52.56,20.628 -74.814,37.168 l 74.814,74.814 z"
   style="fill:#29337a"
   inkscape:connector-curvature="0" />
	<path
   id="path14"
   d="m 101.261,430.982 c 20.874,14.607 44.195,25.915 69.25,33.211 v -102.45 z"
   style="fill:#29337a"
   inkscape:connector-curvature="0" />
	<path
   id="path16"
   d="m 10.512,306.771 c 7.831,25.366 19.831,48.899 35.167,69.833 l 69.833,-69.833 z"
   style="fill:#29337a"
   inkscape:connector-curvature="0" />
</g><g
     id="g28">
	<path
   id="path20"
   d="m 45.619,97.144 c -1.324,1.81 -2.629,3.646 -3.908,5.501 l 73.816,73.812 H 7.793 c -1.746,6.645 -3.171,13.418 -4.345,20.284 h 141.776 z"
   style="fill:#ffffff"
   inkscape:connector-curvature="0" />
	<path
   id="path22"
   d="m 95.767,427.074 c 1.802,1.343 3.654,2.621 5.493,3.908 l 69.25,-69.242 v 102.45 c 6.653,1.945 13.41,3.624 20.284,4.974 V 332.05 Z"
   style="fill:#ffffff"
   inkscape:connector-curvature="0" />
	<path
   id="path24"
   d="m 5.25,286.487 c 1.47,6.873 3.205,13.642 5.258,20.284 h 105.001 l -69.833,69.833 c 7.595,10.377 16.017,20.115 25.168,29.12 L 190.08,286.487 Z"
   style="fill:#ffffff"
   inkscape:connector-curvature="0" />
	<path
   id="path26"
   d="M 170.511,9.48 V 121.462 L 95.696,46.652 C 85.382,54.322 75.741,62.837 66.808,72.055 L 190.791,196.038 V 4.506 c -6.87,1.358 -13.627,3.041 -20.28,4.974 z"
   style="fill:#ffffff"
   inkscape:connector-curvature="0" />
</g><g
     id="g40">
	<polygon
   id="polygon30"
   points="170.511,306.056 169.8,306.771 170.511,306.771 "
   style="fill:#d32030" />
	<polygon
   id="polygon32"
   points="190.084,286.487 190.794,286.487 190.794,285.773 "
   style="fill:#d32030" />
	<polygon
   id="polygon34"
   points="281.229,196.737 280.545,196.737 280.545,197.425 "
   style="fill:#d32030" />
	<polygon
   id="polygon36"
   points="171.21,176.457 170.511,175.754 170.511,176.457 "
   style="fill:#d32030" />
	<polygon
   id="polygon38"
   points="190.794,196.037 190.794,196.737 191.494,196.737 "
   style="fill:#d32030" />
</g><g
     id="g50">
	<path
   id="path42"
   d="m 300.825,411.764 v 53.091 c 25.381,-7.105 49.045,-18.305 70.211,-32.897 L 313.51,374.432 c -4.597,16.151 -6.279,24.501 -12.685,37.332 z"
   style="fill:#252f6c"
   inkscape:connector-curvature="0" />
	<path
   id="path44"
   d="M 313.812,108.471 376.611,45.672 C 354.05,29.15 328.456,16.559 300.824,8.818 v 54.538 c 7.386,14.79 8.007,26.028 12.988,45.115 z"
   style="fill:#252f6c"
   inkscape:connector-curvature="0" />
	<path
   id="path46"
   d="m 427.029,377.984 c 15.815,-21.275 28.141,-45.29 36.147,-71.213 h -107.36 z"
   style="fill:#252f6c"
   inkscape:connector-curvature="0" />
	<path
   id="path48"
   d="m 465.887,176.457 c -7.188,-27.318 -19.143,-52.676 -34.898,-75.192 l -75.2,75.192 z"
   style="fill:#252f6c"
   inkscape:connector-curvature="0" />
</g><g
     id="g64">
	<path
   id="path52"
   d="m 327.638,290.5 16.275,16.275 77.903,77.903 c 1.769,-2.214 3.526,-4.42 5.217,-6.69 L 355.82,306.775 h 107.36 c 2.046,-6.638 3.784,-13.41 5.25,-20.284 H 329.16 c -0.228,2.876 -1.249,1.152 -1.522,4.009 z"
   style="fill:#e7e7e7"
   inkscape:connector-curvature="0" />
	<path
   id="path54"
   d="m 311.352,120.348 70.607,-70.615 c -1.769,-1.372 -3.541,-2.737 -5.348,-4.061 l -62.799,62.799 c 0.651,2.483 -3.066,9.334 -2.46,11.877 z"
   style="fill:#e7e7e7"
   inkscape:connector-curvature="0" />
	<path
   id="path56"
   d="M 300.825,58.992 V 8.814 C 294.18,6.952 287.415,5.374 280.541,4.087 v 24.476 c 7.547,8.182 14.312,18.459 20.284,30.429 z"
   style="fill:#e7e7e7"
   inkscape:connector-curvature="0" />
	<path
   id="path58"
   d="m 326.041,196.737 h 144.195 c -1.171,-6.866 -2.599,-13.635 -4.345,-20.284 H 355.793 l 75.2,-75.192 C 423.6,90.7 415.384,80.768 406.409,71.565 l -84.702,84.694 c 2.281,15.363 3.302,24.285 4.334,40.478 z"
   style="fill:#e7e7e7"
   inkscape:connector-curvature="0" />
	<path
   id="path60"
   d="m 310.088,371.002 60.952,60.959 c 10.138,-6.982 19.685,-14.753 28.593,-23.189 L 319.46,328.595 c -2.559,14.828 -5.595,29.15 -9.372,42.407 z"
   style="fill:#e7e7e7"
   inkscape:connector-curvature="0" />
	<path
   id="path62"
   d="m 280.545,442.301 v 27.28 c 6.873,-1.279 13.635,-2.865 20.284,-4.727 v -53.091 c -5.976,11.975 -12.741,22.367 -20.284,30.538 z"
   style="fill:#e7e7e7"
   inkscape:connector-curvature="0" />
</g><path
     id="path66"
     d="m 321.707,156.259 84.694,-84.694 c -7.625,-7.831 -15.8,-15.119 -24.446,-21.832 l -66.55,66.561 c 2.958,12.363 4.301,26.514 6.302,39.965 z"
     style="fill:#d71f28"
     inkscape:connector-curvature="0" /><g
     id="g74">
	<path
   id="path68"
   d="M 225.019,0.292 C 228.965,0.101 232.899,0 236.836,0 c -3.96,0 -7.901,0.101 -11.817,0.292 z"
   style="fill:#d32030"
   inkscape:connector-curvature="0" />
	<path
   id="path70"
   d="m 236.836,473.68 c -3.938,0 -7.872,-0.108 -11.81,-0.299 3.916,0.198 7.85,0.299 11.81,0.299 z"
   style="fill:#d32030"
   inkscape:connector-curvature="0" />
	<path
   id="path72"
   d="m 236.836,473.68 c 14.943,0 29.535,-1.447 43.708,-4.099 v -27.28 c -12.441,13.485 -26.995,31.379 -43.708,31.379 z"
   style="fill:#d32030"
   inkscape:connector-curvature="0" />
</g><g
     id="g80">
	<path
   id="path76"
   d="M 470.232,196.737 H 327.911 c 1.885,29.704 1.657,60.249 -0.681,89.75 h 141.2 c 3.418,-16.017 5.25,-32.613 5.25,-49.643 0,-13.68 -1.219,-27.06 -3.448,-40.107 z"
   style="fill:#d71f28"
   inkscape:connector-curvature="0" />
	<path
   id="path78"
   d="m 327.638,290.5 c -1.316,13.994 -5.901,24.898 -8.182,38.099 l 80.173,80.173 c 7.932,-7.517 15.347,-15.557 22.183,-24.094 l -77.9,-77.907 z"
   style="fill:#d71f28"
   inkscape:connector-curvature="0" />
</g><path
     id="path82"
     d="M 280.545,30.324 V 4.091 C 266.376,1.447 251.784,0 236.836,0 c 16.713,0 31.267,16.843 43.709,30.324 z"
     style="fill:#d32030"
     inkscape:connector-curvature="0" /><g
     id="g88">
	<path
   id="path84"
   d="m 300.825,422.007 c 6.406,-12.834 11.899,-27.609 16.499,-43.757 l -16.499,-16.499 z"
   style="fill:#29337a"
   inkscape:connector-curvature="0" />
	<path
   id="path86"
   d="M 319.377,102.906 C 314.388,83.819 308.211,66.467 300.825,51.677 v 69.773 z"
   style="fill:#29337a"
   inkscape:connector-curvature="0" />
</g><g
     id="g98">
	<path
   id="path90"
   d="m 332.234,295.092 c 0.269,-2.857 0.512,-5.725 0.744,-8.605 h -9.349 z"
   style="fill:#ffffff"
   inkscape:connector-curvature="0" />
	<path
   id="path92"
   d="M 300.825,121.451 V 51.674 C 294.849,39.704 288.088,29.42 280.541,21.245 v 129.906 l 40.735,-40.735 c -0.613,-2.543 -1.257,-5.034 -1.9,-7.517 z"
   style="fill:#ffffff"
   inkscape:connector-curvature="0" />
	<path
   id="path94"
   d="m 281.229,196.737 h 52.429 c -1.028,-16.192 -2.666,-32.123 -4.944,-47.482 z"
   style="fill:#ffffff"
   inkscape:connector-curvature="0" />
	<path
   id="path96"
   d="m 280.545,452.432 c 7.547,-8.182 14.308,-18.459 20.284,-30.429 v -60.256 l 16.499,16.499 c 3.784,-13.264 6.959,-27.434 9.525,-42.261 l -46.307,-46.304 z"
   style="fill:#ffffff"
   inkscape:connector-curvature="0" />
</g><path
     id="path100"
     d="M 280.545,452.432 V 289.681 l 46.304,46.307 c 2.277,-13.205 4.069,-26.899 5.381,-40.896 l -8.605,-8.605 h 9.349 c 2.337,-29.502 2.565,-60.047 0.681,-89.75 h -52.429 l 47.482,-47.482 c -2.001,-13.455 -4.476,-26.469 -7.434,-38.836 l -40.728,40.735 V 21.248 C 268.103,7.763 253.549,0 236.836,0 232.898,0 228.964,0.101 225.019,0.292 213.37,0.875 201.946,2.308 190.794,4.507 V 196.038 L 66.808,72.055 C 59.19,79.916 52.104,88.292 45.619,97.144 l 79.313,79.313 20.291,20.284 H 3.448 C 1.227,209.784 0,223.164 0,236.844 0,253.878 1.84,270.47 5.25,286.487 H 190.084 L 70.847,405.724 c 7.808,7.67 16.121,14.813 24.921,21.349 l 95.023,-95.023 v 137.116 c 11.151,2.199 22.583,3.631 34.232,4.215 3.938,0.191 7.872,0.299 11.81,0.299 16.716,0 31.27,-7.763 43.712,-21.248 z"
     style="fill:#e51d35"
     inkscape:connector-curvature="0" /><g
     id="g102">
</g><g
     id="g104">
</g><g
     id="g106">
</g><g
     id="g108">
</g><g
     id="g110">
</g><g
     id="g112">
</g><g
     id="g114">
</g><g
     id="g116">
</g><g
     id="g118">
</g><g
     id="g120">
</g><g
     id="g122">
</g><g
     id="g124">
</g><g
     id="g126">
</g><g
     id="g128">
</g><g
     id="g130">
</g></g></svg>