<?xml version="1.0" encoding="UTF-8" standalone="no"?>
<!-- Generator: Adobe Illustrator 19.0.0, SVG Export Plug-In . SVG Version: 6.00 Build 0)  -->

<svg
   xmlns:dc="http://purl.org/dc/elements/1.1/"
   xmlns:cc="http://creativecommons.org/ns#"
   xmlns:rdf="http://www.w3.org/1999/02/22-rdf-syntax-ns#"
   xmlns:svg="http://www.w3.org/2000/svg"
   xmlns="http://www.w3.org/2000/svg"
   xmlns:sodipodi="http://sodipodi.sourceforge.net/DTD/sodipodi-0.dtd"
   xmlns:inkscape="http://www.inkscape.org/namespaces/inkscape"
   version="1.1"
   id="Layer_1"
   x="0px"
   y="0px"
   viewBox="0 0 330 330"
   style="enable-background:new 0 0 330 330;"
   xml:space="preserve"
   sodipodi:docname="home-white.svg"
   inkscape:version="0.92.4 (5da689c313, 2019-01-14)"><metadata
   id="metadata10"><rdf:RDF><cc:Work
       rdf:about=""><dc:format>image/svg+xml</dc:format><dc:type
         rdf:resource="http://purl.org/dc/dcmitype/StillImage" /><dc:title></dc:title></cc:Work></rdf:RDF></metadata><defs
   id="defs8" /><sodipodi:namedview
   pagecolor="#ffffff"
   bordercolor="#666666"
   borderopacity="1"
   objecttolerance="10"
   gridtolerance="10"
   guidetolerance="10"
   inkscape:pageopacity="0"
   inkscape:pageshadow="2"
   inkscape:window-width="1366"
   inkscape:window-height="705"
   id="namedview6"
   showgrid="false"
   inkscape:zoom="0.50568849"
   inkscape:cx="23.68978"
   inkscape:cy="168.97368"
   inkscape:window-x="-8"
   inkscape:window-y="-8"
   inkscape:window-maximized="1"
   inkscape:current-layer="Layer_1" />

<g
   id="g73"
   transform="matrix(0.77618433,0,0,0.8281556,1.5213187,-8.640996)"><g
     id="g16">
		<path
   id="path12"
   d="M 351.191,401.923 H 72.901 c -4.487,0 -8.129,-3.633 -8.129,-8.129 V 242.262 L 8.108,242.148 c -3.284,-0.008 -6.243,-1.992 -7.495,-5.023 -1.252,-3.04 -0.553,-6.527 1.764,-8.852 L 206.104,24.546 c 1.853,-1.845 4.503,-2.666 7.047,-2.276 2.414,0.39 4.511,1.845 5.731,3.942 l 47.43,47.43 V 58.499 c 0,-4.487 3.633,-8.129 8.129,-8.129 h 47.755 c 4.495,0 8.129,3.642 8.129,8.129 v 79.156 l 91.39,91.398 c 2.325,2.325 3.024,5.828 1.764,8.868 -1.26,3.032 -4.227,5.007 -7.511,5.007 -0.008,0 -0.008,0 -0.016,0 l -56.64,-0.114 v 150.98 c 0.008,4.496 -3.626,8.129 -8.121,8.129 z M 81.03,385.666 H 343.063 V 234.67 c 0,-2.162 0.854,-4.235 2.39,-5.755 1.528,-1.52 3.585,-2.374 5.739,-2.374 0.008,0 0.008,0 0.016,0 l 45.105,0.089 -79.855,-79.863 c -1.528,-1.528 -2.382,-3.593 -2.382,-5.747 V 66.628 h -31.498 v 26.645 c 0,3.284 -1.975,6.251 -5.015,7.511 -3.032,1.268 -6.527,0.569 -8.86,-1.764 l -57.038,-57.038 -183.95,183.95 45.203,0.089 c 4.487,0.008 8.112,3.642 8.112,8.129 0,-0.001 0,151.516 0,151.516 z"
   style="fill:#010002"
   inkscape:connector-curvature="0" />
</g><g
     id="g18">
</g><g
     id="g20">
</g><g
     id="g22">
</g><g
     id="g24">
</g><g
     id="g26">
</g><g
     id="g28">
</g><g
     id="g30">
</g><g
     id="g32">
</g><g
     id="g34">
</g><g
     id="g36">
</g><g
     id="g38">
</g><g
     id="g40">
</g><g
     id="g42">
</g><g
     id="g44">
</g><g
     id="g46">
</g></g></svg>