<?xml version="1.0" encoding="UTF-8" standalone="no"?>
<!-- Generator: Adobe Illustrator 19.0.0, SVG Export Plug-In . SVG Version: 6.00 Build 0)  -->

<svg
   xmlns:dc="http://purl.org/dc/elements/1.1/"
   xmlns:cc="http://creativecommons.org/ns#"
   xmlns:rdf="http://www.w3.org/1999/02/22-rdf-syntax-ns#"
   xmlns:svg="http://www.w3.org/2000/svg"
   xmlns="http://www.w3.org/2000/svg"
   xmlns:sodipodi="http://sodipodi.sourceforge.net/DTD/sodipodi-0.dtd"
   xmlns:inkscape="http://www.inkscape.org/namespaces/inkscape"
   version="1.1"
   id="Layer_1"
   x="0px"
   y="0px"
   viewBox="0 0 330 330"
   style="enable-background:new 0 0 330 330;"
   xml:space="preserve"
   sodipodi:docname="list-white.svg"
   inkscape:version="0.92.4 (5da689c313, 2019-01-14)"><metadata
   id="metadata10"><rdf:RDF><cc:Work
       rdf:about=""><dc:format>image/svg+xml</dc:format><dc:type
         rdf:resource="http://purl.org/dc/dcmitype/StillImage" /><dc:title></dc:title></cc:Work></rdf:RDF></metadata><defs
   id="defs8" /><sodipodi:namedview
   pagecolor="#ffffff"
   bordercolor="#666666"
   borderopacity="1"
   objecttolerance="10"
   gridtolerance="10"
   guidetolerance="10"
   inkscape:pageopacity="0"
   inkscape:pageshadow="2"
   inkscape:window-width="1366"
   inkscape:window-height="705"
   id="namedview6"
   showgrid="false"
   inkscape:zoom="0.50568849"
   inkscape:cx="23.68978"
   inkscape:cy="168.97368"
   inkscape:window-x="-8"
   inkscape:window-y="-8"
   inkscape:window-maximized="1"
   inkscape:current-layer="Layer_1" />

<g
   id="g104"
   transform="matrix(0.79435313,0,0,0.61587656,-60.140453,25.764924)"><g
     id="g41">
	
	<path
   id="path27"
   d="m 147.537,80 h 268.604 c 22.092,0 40,-17.908 40,-40 0,-22.092 -17.908,-40 -40,-40 H 147.537 c -22.092,0 -40,17.908 -40,40 0,22.092 17.908,40 40,40 z"
   inkscape:connector-curvature="0" />
	
	<path
   id="path31"
   d="M 416.142,126.06 H 147.537 c -22.092,0 -40,17.908 -40,40 0,22.092 17.908,40 40,40 h 268.604 c 22.092,0 40,-17.908 40,-40 0,-22.092 -17.908,-40 -39.999,-40 z"
   inkscape:connector-curvature="0" />
	
	<path
   id="path35"
   d="M 416.142,252.119 H 147.537 c -22.092,0 -40,17.908 -40,40 0,22.092 17.908,40 40,40 h 268.604 c 22.092,0 40,-17.908 40,-40 0,-22.092 -17.908,-40 -39.999,-40 z"
   inkscape:connector-curvature="0" />
	
	<path
   id="path39"
   d="M 416.142,378.18 H 147.537 c -22.092,0 -40,17.908 -40,40 0,22.092 17.908,40 40,40 h 268.604 c 22.092,0 40,-17.908 40,-40 0,-22.092 -17.908,-40 -39.999,-40 z"
   inkscape:connector-curvature="0" />
</g><g
     id="g43">
</g><g
     id="g45">
</g><g
     id="g47">
</g><g
     id="g49">
</g><g
     id="g51">
</g><g
     id="g53">
</g><g
     id="g55">
</g><g
     id="g57">
</g><g
     id="g59">
</g><g
     id="g61">
</g><g
     id="g63">
</g><g
     id="g65">
</g><g
     id="g67">
</g><g
     id="g69">
</g><g
     id="g71">
</g></g></svg>