<?xml version="1.0" encoding="UTF-8" standalone="no"?>
<!-- Generator: Adobe Illustrator 19.0.0, SVG Export Plug-In . SVG Version: 6.00 Build 0)  -->

<svg
   xmlns:dc="http://purl.org/dc/elements/1.1/"
   xmlns:cc="http://creativecommons.org/ns#"
   xmlns:rdf="http://www.w3.org/1999/02/22-rdf-syntax-ns#"
   xmlns:svg="http://www.w3.org/2000/svg"
   xmlns="http://www.w3.org/2000/svg"
   xmlns:sodipodi="http://sodipodi.sourceforge.net/DTD/sodipodi-0.dtd"
   xmlns:inkscape="http://www.inkscape.org/namespaces/inkscape"
   version="1.1"
   id="Layer_1"
   x="0px"
   y="0px"
   viewBox="0 0 330 330"
   style="enable-background:new 0 0 330 330;"
   xml:space="preserve"
   sodipodi:docname="pc-white.svg"
   inkscape:version="0.92.4 (5da689c313, 2019-01-14)"><metadata
   id="metadata10"><rdf:RDF><cc:Work
       rdf:about=""><dc:format>image/svg+xml</dc:format><dc:type
         rdf:resource="http://purl.org/dc/dcmitype/StillImage" /><dc:title></dc:title></cc:Work></rdf:RDF></metadata><defs
   id="defs8" /><sodipodi:namedview
   pagecolor="#ffffff"
   bordercolor="#666666"
   borderopacity="1"
   objecttolerance="10"
   gridtolerance="10"
   guidetolerance="10"
   inkscape:pageopacity="0"
   inkscape:pageshadow="2"
   inkscape:window-width="640"
   inkscape:window-height="480"
   id="namedview6"
   showgrid="false"
   inkscape:zoom="0.50568849"
   inkscape:cx="287.24087"
   inkscape:cy="89.8736"
   inkscape:window-x="648"
   inkscape:window-y="182"
   inkscape:window-maximized="0"
   inkscape:current-layer="Layer_1" />

<g
   id="g335"
   transform="matrix(0.55203526,0,0,0.58835337,23.940272,19.743257)"><g
     id="g245">
	<g
   id="g243">
		<g
   id="g241">
			<path
   id="path175"
   d="m 344.532,0.002 v 61.25 H 0 v 229.686 h 22.969 v 22.969 H 38.281 V 290.938 H 229.69 v 15.312 c 0,4.221 -3.432,7.656 -7.656,7.656 H 84.222 c -12.666,0 -22.968,10.303 -22.968,22.969 v 15.312 H 30.625 V 489.998 H 352.189 V 352.186 H 76.566 v -15.312 c 0,-4.221 3.432,-7.656 7.656,-7.656 h 137.811 c 12.666,0 22.969,-10.303 22.969,-22.969 v -15.312 h 122.499 v 22.969 h 15.312 v -22.969 h 22.969 V 275.625 H 490 V 0.002 Z m -7.656,367.496 V 474.685 H 45.937 V 367.498 Z M 390.47,275.624 H 15.312 V 76.564 H 390.47 Z m 84.218,-15.313 H 405.782 V 234.12 c 4.781,2.09 9.983,3.223 15.312,3.223 21.107,0 38.281,-17.174 38.281,-38.281 0,-21.107 -17.174,-38.281 -38.281,-38.281 -5.331,0 -10.532,1.133 -15.312,3.219 V 61.25 H 359.845 V 15.314 H 474.688 Z M 405.782,216.01 v -33.893 c 4.198,-3.79 9.6,-6.023 15.312,-6.023 12.666,0 22.968,10.303 22.968,22.968 0,12.666 -10.303,22.969 -22.968,22.969 -5.707,0 -11.109,-2.234 -15.312,-6.021 z"
   inkscape:connector-curvature="0" />
			<rect
   id="rect177"
   height="15.312"
   width="53.597"
   y="244.99899"
   x="30.625" />
			<rect
   id="rect179"
   height="15.312"
   width="22.969"
   y="244.99899"
   x="99.533997" />
			<rect
   id="rect181"
   height="15.312"
   width="22.969"
   y="244.99899"
   x="137.815" />
			<rect
   id="rect183"
   height="15.312"
   width="84.218002"
   y="30.627001"
   x="375.15701" />
			<rect
   id="rect185"
   height="15.312"
   width="38.280998"
   y="61.25"
   x="421.09399" />
			<rect
   id="rect187"
   height="15.312"
   width="38.280998"
   y="91.875"
   x="421.09399" />
			<rect
   id="rect189"
   height="15.312"
   width="15.312"
   y="122.5"
   x="444.06299" />
			<rect
   id="rect191"
   height="15.312"
   width="38.280998"
   y="91.875"
   x="176.09599" />
			<rect
   id="rect193"
   height="15.312"
   width="122.499"
   y="444.06"
   x="137.815" />
			<rect
   id="rect195"
   height="15.312"
   width="15.312"
   y="444.06"
   x="107.19" />
			<rect
   id="rect197"
   height="15.312"
   width="30.628"
   y="444.06"
   x="61.249001" />
			<rect
   id="rect199"
   height="15.312"
   width="38.285"
   y="413.435"
   x="61.25" />
			<rect
   id="rect201"
   height="15.312"
   width="15.312"
   y="413.435"
   x="114.847" />
			<rect
   id="rect203"
   height="15.312"
   width="15.312"
   y="413.435"
   x="145.47099" />
			<rect
   id="rect205"
   height="15.312"
   width="15.312"
   y="413.435"
   x="176.09599" />
			<rect
   id="rect207"
   height="15.312"
   width="15.312"
   y="413.435"
   x="206.72099" />
			<rect
   id="rect209"
   height="15.312"
   width="15.312"
   y="413.435"
   x="237.34599" />
			<rect
   id="rect211"
   height="15.312"
   width="15.312"
   y="413.435"
   x="267.97" />
			<rect
   id="rect213"
   height="15.312"
   width="22.969"
   y="413.435"
   x="298.595" />
			<rect
   id="rect215"
   height="15.312"
   width="15.316"
   y="382.811"
   x="61.25" />
			<rect
   id="rect217"
   height="15.312"
   width="15.312"
   y="382.811"
   x="91.877998" />
			<rect
   id="rect219"
   height="15.312"
   width="15.312"
   y="382.811"
   x="122.503" />
			<rect
   id="rect221"
   height="15.312"
   width="15.312"
   y="382.811"
   x="153.12801" />
			<rect
   id="rect223"
   height="15.312"
   width="15.312"
   y="382.811"
   x="183.752" />
			<rect
   id="rect225"
   height="15.312"
   width="15.312"
   y="382.811"
   x="214.377" />
			<rect
   id="rect227"
   height="15.312"
   width="15.312"
   y="382.811"
   x="245.002" />
			<rect
   id="rect229"
   height="15.312"
   width="15.312"
   y="382.811"
   x="275.62701" />
			<rect
   id="rect231"
   height="15.312"
   width="15.312"
   y="382.811"
   x="306.25101" />
			<rect
   id="rect233"
   height="15.312"
   width="15.312"
   y="444.06"
   x="275.62701" />
			<rect
   id="rect235"
   height="15.312"
   width="15.312"
   y="444.06"
   x="306.25101" />
			<path
   id="path237"
   d="m 436.407,352.186 c -21.107,0 -38.281,17.174 -38.281,38.281 v 61.25 c 0,21.107 17.174,38.281 38.281,38.281 21.107,0 38.281,-17.174 38.281,-38.281 v -61.25 c 0,-21.107 -17.174,-38.281 -38.281,-38.281 z m 22.968,99.53 c 0,12.666 -10.303,22.968 -22.969,22.968 -12.666,0 -22.969,-10.303 -22.969,-22.968 v -61.25 c 0,-12.666 10.303,-22.969 22.969,-22.969 12.666,0 22.969,10.303 22.969,22.969 z"
   inkscape:connector-curvature="0" />
			<rect
   id="rect239"
   height="15.312"
   width="15.312"
   y="382.811"
   x="428.75101" />
		</g>
	</g>
</g><g
     id="g247">
</g><g
     id="g249">
</g><g
     id="g251">
</g><g
     id="g253">
</g><g
     id="g255">
</g><g
     id="g257">
</g><g
     id="g259">
</g><g
     id="g261">
</g><g
     id="g263">
</g><g
     id="g265">
</g><g
     id="g267">
</g><g
     id="g269">
</g><g
     id="g271">
</g><g
     id="g273">
</g><g
     id="g275">
</g></g></svg>