<?xml version="1.0" encoding="UTF-8" standalone="no"?>
<!-- Generator: Adobe Illustrator 19.0.0, SVG Export Plug-In . SVG Version: 6.00 Build 0)  -->

<svg
   xmlns:dc="http://purl.org/dc/elements/1.1/"
   xmlns:cc="http://creativecommons.org/ns#"
   xmlns:rdf="http://www.w3.org/1999/02/22-rdf-syntax-ns#"
   xmlns:svg="http://www.w3.org/2000/svg"
   xmlns="http://www.w3.org/2000/svg"
   xmlns:sodipodi="http://sodipodi.sourceforge.net/DTD/sodipodi-0.dtd"
   xmlns:inkscape="http://www.inkscape.org/namespaces/inkscape"
   version="1.1"
   id="Layer_1"
   x="0px"
   y="0px"
   viewBox="0 0 330 330"
   style="enable-background:new 0 0 330 330;"
   xml:space="preserve"
   sodipodi:docname="portfolio-white.svg"
   inkscape:version="0.92.4 (5da689c313, 2019-01-14)"><metadata
   id="metadata10"><rdf:RDF><cc:Work
       rdf:about=""><dc:format>image/svg+xml</dc:format><dc:type
         rdf:resource="http://purl.org/dc/dcmitype/StillImage" /><dc:title /></cc:Work></rdf:RDF></metadata><defs
   id="defs8" /><sodipodi:namedview
   pagecolor="#ffffff"
   bordercolor="#666666"
   borderopacity="1"
   objecttolerance="10"
   gridtolerance="10"
   guidetolerance="10"
   inkscape:pageopacity="0"
   inkscape:pageshadow="2"
   inkscape:window-width="1366"
   inkscape:window-height="705"
   id="namedview6"
   showgrid="false"
   inkscape:zoom="0.50568849"
   inkscape:cx="23.68978"
   inkscape:cy="168.97368"
   inkscape:window-x="-8"
   inkscape:window-y="-8"
   inkscape:window-maximized="1"
   inkscape:current-layer="Layer_1" />

<g
   id="g81"
   transform="matrix(0.63395175,0,0,0.63149545,16.210252,32.589642)"><path
     id="path75"
     d="M 421.051,87.299 H 315.284 V 58.965 c 0,-25.731 -20.935,-46.666 -46.666,-46.666 h -67.236 c -25.731,0 -46.666,20.935 -46.666,46.666 V 87.299 H 48.949 C 21.959,87.299 0,109.258 0,136.248 v 313.953 c 0,4.143 3.357,7.5 7.5,7.5 h 455 c 4.143,0 7.5,-3.357 7.5,-7.5 V 136.248 c 0,-26.99 -21.959,-48.949 -48.949,-48.949 z M 455,442.701 H 15 V 136.248 c 0,-18.72 15.229,-33.949 33.949,-33.949 h 372.102 c 18.72,0 33.949,15.229 33.949,33.949 z M 268.618,27.299 c 17.461,0 31.666,14.205 31.666,31.666 v 28.334 h -15 V 58.965 c 0,-9.189 -7.477,-16.666 -16.666,-16.666 h -67.236 c -9.189,0 -16.666,7.477 -16.666,16.666 v 28.334 h -15 V 58.965 c 0,-17.461 14.205,-31.666 31.666,-31.666 z m -11.856,60 v -7.5 c 0,-4.143 -3.357,-7.5 -7.5,-7.5 -4.143,0 -7.5,3.357 -7.5,7.5 v 7.5 h -13.523 v -7.5 c 0,-4.143 -3.357,-7.5 -7.5,-7.5 -4.143,0 -7.5,3.357 -7.5,7.5 v 7.5 H 199.717 V 58.965 c 0,-0.919 0.747,-1.666 1.666,-1.666 h 67.236 c 0.919,0 1.666,0.747 1.666,1.666 v 28.334 z"
     inkscape:connector-curvature="0" /><path
     id="path77"
     d="m 108.949,132.299 h 312.102 c 2.178,0 3.949,1.771 3.949,3.949 v 283.953 c 0,4.143 3.357,7.5 7.5,7.5 4.143,0 7.5,-3.357 7.5,-7.5 V 136.248 c 0,-10.448 -8.501,-18.949 -18.949,-18.949 H 108.949 c -4.143,0 -7.5,3.357 -7.5,7.5 0.002,4.144 3.358,7.5 7.5,7.5 z"
     inkscape:connector-curvature="0" /><path
     id="path79"
     d="M 45,420.201 V 136.248 c 0,-2.178 1.771,-3.949 3.949,-3.949 h 30 c 4.142,0 7.499,-3.356 7.5,-7.498 0,-4.145 -3.357,-7.502 -7.5,-7.502 h -30 C 38.501,117.299 30,125.8 30,136.248 v 283.953 c 0,4.143 3.357,7.5 7.5,7.5 4.143,0 7.5,-3.357 7.5,-7.5 z"
     inkscape:connector-curvature="0" /></g></svg>