<?xml version="1.0" encoding="UTF-8" standalone="no"?>
<!-- Generator: Adobe Illustrator 19.0.0, SVG Export Plug-In . SVG Version: 6.00 Build 0)  -->

<svg
   xmlns:dc="http://purl.org/dc/elements/1.1/"
   xmlns:cc="http://creativecommons.org/ns#"
   xmlns:rdf="http://www.w3.org/1999/02/22-rdf-syntax-ns#"
   xmlns:svg="http://www.w3.org/2000/svg"
   xmlns="http://www.w3.org/2000/svg"
   xmlns:sodipodi="http://sodipodi.sourceforge.net/DTD/sodipodi-0.dtd"
   xmlns:inkscape="http://www.inkscape.org/namespaces/inkscape"
   version="1.1"
   id="Layer_1"
   x="0px"
   y="0px"
   viewBox="0 0 330 330"
   style="enable-background:new 0 0 330 330;"
   xml:space="preserve"
   sodipodi:docname="spanish.svg"
   inkscape:version="0.92.4 (5da689c313, 2019-01-14)"><metadata
   id="metadata10"><rdf:RDF><cc:Work
       rdf:about=""><dc:format>image/svg+xml</dc:format><dc:type
         rdf:resource="http://purl.org/dc/dcmitype/StillImage" /><dc:title></dc:title></cc:Work></rdf:RDF></metadata><defs
   id="defs8" /><sodipodi:namedview
   pagecolor="#ffffff"
   bordercolor="#666666"
   borderopacity="1"
   objecttolerance="10"
   gridtolerance="10"
   guidetolerance="10"
   inkscape:pageopacity="0"
   inkscape:pageshadow="2"
   inkscape:window-width="1680"
   inkscape:window-height="987"
   id="namedview6"
   showgrid="false"
   inkscape:zoom="0.50568849"
   inkscape:cx="23.68978"
   inkscape:cy="168.97368"
   inkscape:window-x="1358"
   inkscape:window-y="-8"
   inkscape:window-maximized="1"
   inkscape:current-layer="Layer_1" />

<g
   id="g266"
   transform="matrix(0.65239223,0,0,0.64852992,-0.90224602,-1.145078)"><path
     id="path202"
     d="m 0,256 c 0,31.314 5.633,61.31 15.923,89.043 L 256,367.304 496.077,345.043 C 506.367,317.31 512,287.314 512,256 c 0,-31.314 -5.633,-61.31 -15.923,-89.043 L 256,144.696 15.923,166.957 C 5.633,194.69 0,224.686 0,256 Z"
     style="fill:#ffda44"
     inkscape:connector-curvature="0" /><g
     id="g208">
	<path
   id="path204"
   d="M 496.077,166.957 C 459.906,69.473 366.071,0 256,0 145.929,0 52.094,69.473 15.923,166.957 Z"
   style="fill:#d80027"
   inkscape:connector-curvature="0" />
	<path
   id="path206"
   d="M 15.923,345.043 C 52.094,442.527 145.929,512 256,512 366.071,512 459.906,442.527 496.077,345.043 Z"
   style="fill:#d80027"
   inkscape:connector-curvature="0" />
</g><g
     id="g210">
</g><g
     id="g212">
</g><g
     id="g214">
</g><g
     id="g216">
</g><g
     id="g218">
</g><g
     id="g220">
</g><g
     id="g222">
</g><g
     id="g224">
</g><g
     id="g226">
</g><g
     id="g228">
</g><g
     id="g230">
</g><g
     id="g232">
</g><g
     id="g234">
</g><g
     id="g236">
</g><g
     id="g238">
</g></g></svg>