<?xml version="1.0" encoding="UTF-8" standalone="no"?>
<!-- Generator: Adobe Illustrator 19.0.0, SVG Export Plug-In . SVG Version: 6.00 Build 0)  -->

<svg
   xmlns:dc="http://purl.org/dc/elements/1.1/"
   xmlns:cc="http://creativecommons.org/ns#"
   xmlns:rdf="http://www.w3.org/1999/02/22-rdf-syntax-ns#"
   xmlns:svg="http://www.w3.org/2000/svg"
   xmlns="http://www.w3.org/2000/svg"
   xmlns:sodipodi="http://sodipodi.sourceforge.net/DTD/sodipodi-0.dtd"
   xmlns:inkscape="http://www.inkscape.org/namespaces/inkscape"
   version="1.1"
   id="Layer_1"
   x="0px"
   y="0px"
   viewBox="0 0 330 330"
   style="enable-background:new 0 0 330 330;"
   xml:space="preserve"
   sodipodi:docname="user-white.svg"
   inkscape:version="0.92.4 (5da689c313, 2019-01-14)"><metadata
   id="metadata10"><rdf:RDF><cc:Work
       rdf:about=""><dc:format>image/svg+xml</dc:format><dc:type
         rdf:resource="http://purl.org/dc/dcmitype/StillImage" /><dc:title></dc:title></cc:Work></rdf:RDF></metadata><defs
   id="defs8" /><sodipodi:namedview
   pagecolor="#ffffff"
   bordercolor="#666666"
   borderopacity="1"
   objecttolerance="10"
   gridtolerance="10"
   guidetolerance="10"
   inkscape:pageopacity="0"
   inkscape:pageshadow="2"
   inkscape:window-width="640"
   inkscape:window-height="480"
   id="namedview6"
   showgrid="false"
   inkscape:zoom="0.50568849"
   inkscape:cx="23.68978"
   inkscape:cy="168.97368"
   inkscape:window-x="679"
   inkscape:window-y="139"
   inkscape:window-maximized="0"
   inkscape:current-layer="Layer_1" />

<g
   id="g150"
   transform="matrix(5.9007659,0,0,5.2845877,-12.585431,4.6264852)"><path
     id="path95"
     d="M 48.014,42.889 38.461,38.113 C 37.56,37.662 37,36.756 37,35.748 v -3.381 c 0.229,-0.28 0.47,-0.599 0.719,-0.951 1.239,-1.75 2.232,-3.698 2.954,-5.799 C 42.084,24.97 43,23.575 43,22 v -4 c 0,-0.963 -0.36,-1.896 -1,-2.625 V 10.056 C 42.056,9.506 42.276,6.232 39.908,3.531 37.854,1.188 34.521,0 30,0 25.479,0 22.146,1.188 20.092,3.53 17.724,6.231 17.944,9.506 18,10.056 v 5.319 C 17.36,16.104 17,17.037 17,18 v 4 c 0,1.217 0.553,2.352 1.497,3.109 0.916,3.627 2.833,6.36 3.503,7.237 v 3.309 c 0,0.968 -0.528,1.856 -1.377,2.32 l -8.921,4.866 C 8.801,44.424 7,47.458 7,50.762 V 54 c 0,4.746 15.045,6 23,6 7.955,0 23,-1.254 23,-6 v -3.043 c 0,-3.438 -1.911,-6.53 -4.986,-8.068 z M 51,54 c 0,1.357 -7.412,4 -21,4 C 16.412,58 9,55.357 9,54 v -3.238 c 0,-2.571 1.402,-4.934 3.659,-6.164 L 21.58,39.732 C 23.073,38.917 24,37.354 24,35.655 v -4.019 l -0.233,-0.278 c -0.024,-0.029 -2.475,-2.994 -3.41,-7.065 l -0.091,-0.396 -0.341,-0.22 C 19.346,23.303 19,22.676 19,22 v -4 c 0,-0.561 0.238,-1.084 0.67,-1.475 L 20,16.228 V 10 L 19.991,9.869 C 19.988,9.842 19.648,7.07 21.596,4.848 23.253,2.958 26.081,2 30,2 c 3.905,0 6.727,0.951 8.386,2.828 1.947,2.201 1.625,5.017 1.623,5.041 L 40,16.228 40.33,16.526 C 40.762,16.916 41,17.439 41,18 v 4 c 0,0.873 -0.572,1.637 -1.422,1.899 l -0.498,0.153 -0.16,0.495 c -0.669,2.081 -1.622,4.003 -2.834,5.713 -0.297,0.421 -0.586,0.794 -0.837,1.079 L 35,31.623 v 4.125 c 0,1.77 0.983,3.361 2.566,4.153 l 9.553,4.776 C 49.513,45.874 51,48.28 51,50.957 Z"
     inkscape:connector-curvature="0" /><g
     id="g97">
</g><g
     id="g99">
</g><g
     id="g101">
</g><g
     id="g103">
</g><g
     id="g105">
</g><g
     id="g107">
</g><g
     id="g109">
</g><g
     id="g111">
</g><g
     id="g113">
</g><g
     id="g115">
</g><g
     id="g117">
</g><g
     id="g119">
</g><g
     id="g121">
</g><g
     id="g123">
</g><g
     id="g125">
</g></g></svg>