<?xml version="1.0" encoding="UTF-8" standalone="no"?>
<!-- Generator: Adobe Illustrator 19.0.0, SVG Export Plug-In . SVG Version: 6.00 Build 0)  -->

<svg
   xmlns:dc="http://purl.org/dc/elements/1.1/"
   xmlns:cc="http://creativecommons.org/ns#"
   xmlns:rdf="http://www.w3.org/1999/02/22-rdf-syntax-ns#"
   xmlns:svg="http://www.w3.org/2000/svg"
   xmlns="http://www.w3.org/2000/svg"
   xmlns:sodipodi="http://sodipodi.sourceforge.net/DTD/sodipodi-0.dtd"
   xmlns:inkscape="http://www.inkscape.org/namespaces/inkscape"
   version="1.1"
   id="Layer_1"
   x="0px"
   y="0px"
   viewBox="0 0 330 330"
   style="enable-background:new 0 0 330 330;"
   xml:space="preserve"
   sodipodi:docname="whatsapp-white.svg"
   inkscape:version="0.92.4 (5da689c313, 2019-01-14)"><metadata
   id="metadata10"><rdf:RDF><cc:Work
       rdf:about=""><dc:format>image/svg+xml</dc:format><dc:type
         rdf:resource="http://purl.org/dc/dcmitype/StillImage" /><dc:title></dc:title></cc:Work></rdf:RDF></metadata><defs
   id="defs8" /><sodipodi:namedview
   pagecolor="#ffffff"
   bordercolor="#666666"
   borderopacity="1"
   objecttolerance="10"
   gridtolerance="10"
   guidetolerance="10"
   inkscape:pageopacity="0"
   inkscape:pageshadow="2"
   inkscape:window-width="1366"
   inkscape:window-height="705"
   id="namedview6"
   showgrid="false"
   inkscape:zoom="1.430303"
   inkscape:cx="199.9915"
   inkscape:cy="158.4104"
   inkscape:window-x="-8"
   inkscape:window-y="-8"
   inkscape:window-maximized="1"
   inkscape:current-layer="Layer_1" />

<g
   id="g550"
   transform="matrix(5.9881845,0,0,5.8671773,11.364406,10.665261)"><g
     id="g492">
	<g
   id="g490">
		<path
   id="path486"
   d="M 26,0 C 11.663,0 0,11.663 0,26 0,30.891 1.359,35.639 3.937,39.762 2.91,43.36 1.055,50.166 1.035,50.237 c -0.096,0.352 0.007,0.728 0.27,0.981 0.263,0.253 0.643,0.343 0.989,0.237 L 12.6,48.285 C 16.637,50.717 21.26,52 26,52 40.337,52 52,40.337 52,26 52,11.663 40.337,0 26,0 Z m 0,50 c -4.519,0 -8.921,-1.263 -12.731,-3.651 -0.161,-0.101 -0.346,-0.152 -0.531,-0.152 -0.099,0 -0.198,0.015 -0.294,0.044 l -8.999,2.77 C 4.106,46.598 5.294,42.282 5.983,39.881 6.063,39.603 6.018,39.303 5.861,39.06 3.335,35.173 2,30.657 2,26 2,12.767 12.767,2 26,2 39.233,2 50,12.767 50,26 50,39.233 39.233,50 26,50 Z"
   inkscape:connector-curvature="0" />
		<path
   id="path488"
   d="m 42.985,32.126 c -1.846,-1.025 -3.418,-2.053 -4.565,-2.803 -0.876,-0.572 -1.509,-0.985 -1.973,-1.218 -1.297,-0.647 -2.28,-0.19 -2.654,0.188 -0.047,0.047 -0.089,0.098 -0.125,0.152 -1.347,2.021 -3.106,3.954 -3.621,4.058 -0.595,-0.093 -3.38,-1.676 -6.148,-3.981 -2.826,-2.355 -4.604,-4.61 -4.865,-6.146 C 20.847,20.51 21.5,19.336 21.5,18 21.5,16.623 18.288,10.874 17.707,10.293 17.124,9.711 15.811,9.62 13.804,10.02 c -0.193,0.039 -0.371,0.134 -0.511,0.273 -0.243,0.243 -5.929,6.04 -3.227,13.066 2.966,7.711 10.579,16.674 20.285,18.13 1.103,0.165 2.137,0.247 3.105,0.247 5.71,0 9.08,-2.873 10.029,-8.572 0.071,-0.417 -0.13,-0.833 -0.5,-1.038 z M 30.648,39.511 C 20.384,37.972 13.919,27.803 11.933,22.641 c -1.97,-5.12 1.663,-9.685 2.575,-10.717 0.742,-0.126 1.523,-0.179 1.849,-0.128 0.681,0.947 3.039,5.402 3.143,6.204 0,0.525 -0.171,1.256 -2.207,3.293 C 17.105,21.48 17,21.734 17,22 c 0,5.236 11.044,12.5 13,12.5 1.701,0 3.919,-2.859 5.182,-4.722 0.073,0.003 0.196,0.028 0.371,0.116 0.36,0.181 0.984,0.588 1.773,1.104 1.042,0.681 2.426,1.585 4.06,2.522 -0.742,3.57 -2.816,7.181 -10.738,5.991 z"
   inkscape:connector-curvature="0" />
	</g>
</g><g
     id="g494">
</g><g
     id="g496">
</g><g
     id="g498">
</g><g
     id="g500">
</g><g
     id="g502">
</g><g
     id="g504">
</g><g
     id="g506">
</g><g
     id="g508">
</g><g
     id="g510">
</g><g
     id="g512">
</g><g
     id="g514">
</g><g
     id="g516">
</g><g
     id="g518">
</g><g
     id="g520">
</g><g
     id="g522">
</g></g></svg>